<svg xmlns="http://www.w3.org/2000/svg" width="39" height="55" viewBox="0 0 39 55" fill="none">
<path d="M21.1395 21.4169C21.4888 20.2853 22.9684 20.2853 23.3177 21.4169L25.3657 28.0592C26.2796 31.0197 28.4314 33.3422 31.173 34.3277L37.3201 36.5395C38.3679 36.9167 38.3679 38.5147 37.3201 38.8919L31.1698 41.1038C28.4287 42.0908 26.2781 44.4147 25.3657 47.3757L23.3177 54.0146C23.1632 54.5229 22.7239 54.8665 22.2286 54.8665C21.7333 54.8665 21.294 54.5229 21.1395 54.0146L19.0915 47.3723C18.1782 44.4126 16.0278 42.0901 13.2874 41.1038L7.13708 38.8919C6.66645 38.7251 6.34827 38.2507 6.34827 37.7157C6.34827 37.1808 6.66645 36.7063 7.13708 36.5395L13.2874 34.3277C16.0278 33.3413 18.1782 31.0189 19.0915 28.0592L21.1395 21.4169ZM8.87389 3.93155C8.96727 3.62698 9.2309 3.42134 9.52797 3.42134C9.82505 3.42134 10.0887 3.62698 10.1821 3.93155L11.4108 7.91625C11.9601 9.69256 13.2493 11.0848 14.894 11.678L18.5835 13.0051C18.8655 13.106 19.0559 13.3907 19.0559 13.7115C19.0559 14.0324 18.8655 14.3171 18.5835 14.418L14.894 15.745C13.2493 16.3368 11.9588 17.7306 11.4108 19.5068L10.1821 23.4915C10.0887 23.7961 9.82505 24.0018 9.52797 24.0018C9.2309 24.0018 8.96727 23.7961 8.87389 23.4915L7.6451 19.5068C7.09715 17.7306 5.80661 16.3368 4.16196 15.745L0.472422 14.418C0.190408 14.3171 0 14.0324 0 13.7115C0 13.3907 0.190408 13.106 0.472422 13.0051L4.16196 11.678C5.80661 11.0863 7.09715 9.69248 7.6451 7.91625L8.87389 3.93155ZM31.3191 0.334353C31.3833 0.134208 31.5579 0 31.7541 0C31.9502 0 32.1248 0.134208 32.1891 0.334353L33.0083 2.98853C33.3734 4.17502 34.2339 5.10433 35.3325 5.49868L37.7901 6.38341C37.9754 6.4528 38.0996 6.64137 38.0996 6.85321C38.0996 7.06504 37.9754 7.25361 37.7901 7.323L35.3325 8.20773C34.2348 8.60211 33.3734 9.53234 33.0083 10.7179L32.1891 13.3721C32.1248 13.5722 31.9502 13.7064 31.7541 13.7064C31.5579 13.7064 31.3833 13.5722 31.3191 13.3721L30.4999 10.7179C30.1347 9.53234 29.2734 8.60211 28.1757 8.20773L25.7213 7.323C25.536 7.25361 25.4117 7.06504 25.4117 6.85321C25.4117 6.64137 25.536 6.4528 25.7213 6.38341L28.1789 5.49868C29.2775 5.10433 30.1379 4.17502 30.5031 2.98853L31.3191 0.334353Z" fill="#FFB121"/>
</svg>